<svg width="80" height="80" viewBox="0 0 80 80" fill="none" xmlns="http://www.w3.org/2000/svg">
<rect width="80" height="80" rx="40" fill="#F7CE4D"/>
<path d="M40.1738 16.8496C44.2168 16.8496 47.7129 17.6309 50.6621 19.1934C54.9395 21.4395 57.5566 25.375 58.5137 31H52.7422C52.0391 27.8555 50.584 25.5703 48.377 24.1445C46.1699 22.6992 43.3867 21.9766 40.0273 21.9766C36.043 21.9766 32.6836 23.4707 29.9492 26.459C27.2344 29.4473 25.877 33.9004 25.877 39.8184C25.877 44.9355 27 49.1055 29.2461 52.3281C31.4922 55.5312 35.1543 57.1328 40.2324 57.1328C44.1191 57.1328 47.332 56.0098 49.8711 53.7637C52.4297 51.498 53.7383 47.8457 53.7969 42.8066H40.3203V37.9727H59.2168V61H55.4668L54.0605 55.4629C52.0879 57.6309 50.3398 59.1348 48.8164 59.9746C46.2578 61.4199 43.0059 62.1426 39.0605 62.1426C33.9629 62.1426 29.5781 60.4922 25.9062 57.1914C21.9023 53.0508 19.9004 47.3672 19.9004 40.1406C19.9004 32.9336 21.8535 27.2012 25.7598 22.9434C29.4707 18.8809 34.2754 16.8496 40.1738 16.8496Z" fill="black"/>
</svg>
